<svg width="21" height="20" viewBox="0 0 21 20" fill="none" xmlns="http://www.w3.org/2000/svg">
<g id="Mail">
<path id="Vector" d="M19.0312 3.125H1.96875C1.60576 3.125 1.3125 3.4043 1.3125 3.75V16.25C1.3125 16.5957 1.60576 16.875 1.96875 16.875H19.0312C19.3942 16.875 19.6875 16.5957 19.6875 16.25V3.75C19.6875 3.4043 19.3942 3.125 19.0312 3.125ZM18.2109 5.28906V15.4688H2.78906V5.28906L2.22305 4.86914L3.029 3.88281L3.90674 4.5332H17.0953L17.973 3.88281L18.779 4.86914L18.2109 5.28906ZM17.0953 4.53125L10.5 9.41406L3.90469 4.53125L3.02695 3.88086L2.221 4.86719L2.78701 5.28711L9.79248 10.4746C9.99395 10.6237 10.2418 10.7046 10.4969 10.7046C10.752 10.7046 10.9999 10.6237 11.2014 10.4746L18.2109 5.28906L18.777 4.86914L17.971 3.88281L17.0953 4.53125Z" fill="#B9B9B9"/>
</g>
</svg>
