<svg width="20" height="20" viewBox="0 0 20 20" fill="none" xmlns="http://www.w3.org/2000/svg">
<g id="Password">
<path id="Vector" d="M9.99967 14.1667C9.55765 14.1667 9.13372 13.9911 8.82116 13.6785C8.5086 13.366 8.33301 12.942 8.33301 12.5C8.33301 11.575 9.07467 10.8333 9.99967 10.8333C10.4417 10.8333 10.8656 11.0089 11.1782 11.3215C11.4907 11.6341 11.6663 12.058 11.6663 12.5C11.6663 12.942 11.4907 13.366 11.1782 13.6785C10.8656 13.9911 10.4417 14.1667 9.99967 14.1667ZM14.9997 16.6667V8.33334H4.99967V16.6667H14.9997ZM14.9997 6.66667C15.4417 6.66667 15.8656 6.84226 16.1782 7.15482C16.4907 7.46739 16.6663 7.89131 16.6663 8.33334V16.6667C16.6663 17.1087 16.4907 17.5326 16.1782 17.8452C15.8656 18.1577 15.4417 18.3333 14.9997 18.3333H4.99967C4.55765 18.3333 4.13372 18.1577 3.82116 17.8452C3.5086 17.5326 3.33301 17.1087 3.33301 16.6667V8.33334C3.33301 7.40834 4.07467 6.66667 4.99967 6.66667H5.83301V5C5.83301 3.89493 6.27199 2.83513 7.0534 2.05372C7.8348 1.27232 8.89461 0.833336 9.99967 0.833336C10.5468 0.833336 11.0887 0.94111 11.5942 1.1505C12.0997 1.3599 12.559 1.66681 12.946 2.05372C13.3329 2.44063 13.6398 2.89996 13.8492 3.40549C14.0586 3.91101 14.1663 4.45283 14.1663 5V6.66667H14.9997ZM9.99967 2.5C9.33663 2.5 8.70075 2.76339 8.23191 3.23224C7.76307 3.70108 7.49967 4.33696 7.49967 5V6.66667H12.4997V5C12.4997 4.33696 12.2363 3.70108 11.7674 3.23224C11.2986 2.76339 10.6627 2.5 9.99967 2.5Z" fill="#B9B9B9"/>
</g>
</svg>
