<svg width="20" height="20" viewBox="0 0 20 20" fill="none" xmlns="http://www.w3.org/2000/svg">
<g id="Phone">
<path id="Vector" d="M14.7558 10.2442C14.6785 10.1667 14.5866 10.1053 14.4855 10.0633C14.3844 10.0214 14.2761 9.99984 14.1666 9.99984C14.0572 9.99984 13.9488 10.0214 13.8477 10.0633C13.7466 10.1053 13.6548 10.1667 13.5775 10.2442L12.2491 11.5725C11.6333 11.3892 10.4841 10.9725 9.75579 10.2442C9.02745 9.51584 8.61079 8.36667 8.42745 7.75084L9.75579 6.4225C9.83324 6.34518 9.89469 6.25335 9.93661 6.15225C9.97854 6.05115 10.0001 5.94278 10.0001 5.83334C10.0001 5.72389 9.97854 5.61552 9.93661 5.51443C9.89469 5.41333 9.83324 5.3215 9.75579 5.24417L6.42245 1.91084C6.34513 1.83338 6.25329 1.77194 6.1522 1.73001C6.0511 1.68808 5.94273 1.6665 5.83329 1.6665C5.72384 1.6665 5.61547 1.68808 5.51437 1.73001C5.41328 1.77194 5.32144 1.83338 5.24412 1.91084L2.98412 4.17084C2.66745 4.48751 2.48912 4.92251 2.49579 5.36667C2.51495 6.55334 2.82912 10.675 6.07745 13.9233C9.32579 17.1717 13.4475 17.485 14.635 17.505H14.6583C15.0983 17.505 15.5141 17.3317 15.8291 17.0167L18.0891 14.7567C18.1666 14.6793 18.228 14.5875 18.2699 14.4864C18.3119 14.3853 18.3335 14.2769 18.3335 14.1675C18.3335 14.0581 18.3119 13.9497 18.2699 13.8486C18.228 13.7475 18.1666 13.6557 18.0891 13.5783L14.7558 10.2442ZM14.65 15.8375C13.61 15.82 10.0516 15.5408 7.25579 12.7442C4.45079 9.93917 4.17912 6.36834 4.16245 5.34917L5.83329 3.67834L7.98829 5.83334L6.91079 6.91084C6.81284 7.00871 6.74082 7.12945 6.70125 7.26215C6.66167 7.39484 6.65579 7.5353 6.68412 7.67084C6.70412 7.76667 7.19329 10.0392 8.57662 11.4225C9.95995 12.8058 12.2325 13.295 12.3283 13.315C12.4637 13.3441 12.6043 13.3387 12.7372 13.2993C12.87 13.2598 12.9907 13.1875 13.0883 13.0892L14.1666 12.0117L16.3216 14.1667L14.65 15.8375Z" fill="#B9B9B9"/>
</g>
</svg>
