<svg width="20" height="20" viewBox="0 0 20 20" fill="none" xmlns="http://www.w3.org/2000/svg">
<g id="Name surname">
<path id="Vector" d="M9.99967 9.99999C9.08301 9.99999 8.29829 9.67361 7.64551 9.02083C6.99273 8.36805 6.66634 7.58333 6.66634 6.66666C6.66634 5.74999 6.99273 4.96527 7.64551 4.3125C8.29829 3.65972 9.08301 3.33333 9.99967 3.33333C10.9163 3.33333 11.7011 3.65972 12.3538 4.3125C13.0066 4.96527 13.333 5.74999 13.333 6.66666C13.333 7.58333 13.0066 8.36805 12.3538 9.02083C11.7011 9.67361 10.9163 9.99999 9.99967 9.99999ZM3.33301 16.6667V14.3333C3.33301 13.8611 3.45467 13.4269 3.69801 13.0308C3.94134 12.6347 4.26412 12.3328 4.66634 12.125C5.52745 11.6944 6.40245 11.3714 7.29134 11.1558C8.18023 10.9403 9.08301 10.8328 9.99967 10.8333C10.9163 10.8333 11.8191 10.9411 12.708 11.1567C13.5969 11.3722 14.4719 11.695 15.333 12.125C15.7358 12.3333 16.0588 12.6355 16.3022 13.0317C16.5455 13.4278 16.6669 13.8617 16.6663 14.3333V16.6667H3.33301ZM4.99967 15H14.9997V14.3333C14.9997 14.1806 14.9613 14.0417 14.8847 13.9167C14.808 13.7917 14.7075 13.6944 14.583 13.625C13.833 13.25 13.0761 12.9689 12.3122 12.7817C11.5483 12.5944 10.7775 12.5006 9.99967 12.5C9.2219 12.5 8.45106 12.5939 7.68717 12.7817C6.92329 12.9694 6.16634 13.2506 5.41634 13.625C5.29134 13.6944 5.19051 13.7917 5.11384 13.9167C5.03717 14.0417 4.99912 14.1806 4.99967 14.3333V15ZM9.99967 8.33333C10.458 8.33333 10.8505 8.16999 11.1772 7.84333C11.5038 7.51666 11.6669 7.12444 11.6663 6.66666C11.6663 6.20833 11.503 5.81583 11.1763 5.48916C10.8497 5.16249 10.4575 4.99944 9.99967 4.99999C9.54134 4.99999 9.14884 5.16333 8.82217 5.48999C8.49551 5.81666 8.33245 6.20888 8.33301 6.66666C8.33301 7.12499 8.49634 7.51749 8.82301 7.84416C9.14967 8.17083 9.5419 8.33388 9.99967 8.33333Z" fill="#B9B9B9"/>
</g>
</svg>
